<svg width="372" height="90" viewBox="0 0 372 90" fill="none" xmlns="http://www.w3.org/2000/svg">
<path d="M35.2 20.93L22.715 58H13.365L1.045 20.93H10.175L14.63 35.725C15.4367 38.365 16.1333 40.9133 16.72 43.37C17.3067 45.79 17.6917 47.55 17.875 48.65L18.15 50.355C18.7367 46.5417 19.9283 41.665 21.725 35.725L26.18 20.93H35.2ZM40.3799 58V20.93H48.8499V58H40.3799ZM56.534 58V20.93H65.829L74.464 36.275C75.674 38.4383 76.719 40.4733 77.599 42.38C78.5157 44.25 79.1023 45.57 79.359 46.34L79.799 47.55C79.4323 44.8367 79.249 41.0783 79.249 36.275V20.93H87.719V58H78.424L69.569 42.655C68.3957 40.675 67.3507 38.7317 66.434 36.825C65.554 34.8817 64.949 33.4517 64.619 32.535L64.179 31.16C64.729 34.46 65.004 38.2917 65.004 42.655V58H56.534ZM126.839 35.89V54.59C123.319 57.1567 118.882 58.44 113.529 58.44C107.589 58.44 102.767 56.735 99.0636 53.325C95.3603 49.915 93.5086 45.2767 93.5086 39.41C93.5086 33.6167 95.4336 28.9783 99.2836 25.495C103.17 22.0117 108.084 20.27 114.024 20.27C118.204 20.27 121.815 21.04 124.859 22.58V31.05C121.339 29.0333 117.727 28.025 114.024 28.025C110.54 28.025 107.772 29.07 105.719 31.16C103.665 33.2133 102.639 35.9633 102.639 39.41C102.639 42.8933 103.647 45.6617 105.664 47.715C107.68 49.7683 110.43 50.795 113.914 50.795C115.49 50.795 117.049 50.5567 118.589 50.08V43.095H112.594V35.89H126.839ZM142.242 51.235H156.762V58H133.717V20.93H156.542V27.695H142.242V36.11H155.002V42.82H142.242V51.235ZM172.104 27.805V38.255H176.119C179.785 38.255 181.619 36.4583 181.619 32.865C181.619 31.2883 181.142 30.06 180.189 29.18C179.235 28.2633 177.934 27.805 176.284 27.805H172.104ZM182.719 58L174.689 45.13H172.104V58H163.634V20.93H176.449C180.592 20.93 183.91 22.03 186.404 24.23C188.934 26.43 190.199 29.29 190.199 32.81C190.199 38.09 187.944 41.7383 183.434 43.755L192.839 58H182.719Z" fill="white"/>
<path d="M233.773 27.695H219.693V37.265H231.958V44.03H219.693V58H211.168V20.93H233.773V27.695ZM237.615 39.355C237.615 33.6717 239.247 29.0883 242.51 25.605C245.81 22.085 250.192 20.325 255.655 20.325C261.155 20.325 265.537 22.0667 268.8 25.55C272.063 29.0333 273.695 33.635 273.695 39.355C273.695 45.0383 272.045 49.64 268.745 53.16C265.482 56.6433 261.118 58.385 255.655 58.385C250.155 58.385 245.773 56.6433 242.51 53.16C239.247 49.6767 237.615 45.075 237.615 39.355ZM249.11 31.105C247.497 33.1217 246.69 35.8717 246.69 39.355C246.69 42.8383 247.497 45.6067 249.11 47.66C250.723 49.6767 252.905 50.685 255.655 50.685C258.405 50.685 260.587 49.6767 262.2 47.66C263.813 45.6067 264.62 42.8383 264.62 39.355C264.62 35.8717 263.813 33.1217 262.2 31.105C260.587 29.0517 258.405 28.025 255.655 28.025C252.905 28.025 250.723 29.0517 249.11 31.105ZM278.113 39.355C278.113 33.6717 279.745 29.0883 283.008 25.605C286.308 22.085 290.69 20.325 296.153 20.325C301.653 20.325 306.035 22.0667 309.298 25.55C312.561 29.0333 314.193 33.635 314.193 39.355C314.193 45.0383 312.543 49.64 309.243 53.16C305.98 56.6433 301.616 58.385 296.153 58.385C290.653 58.385 286.271 56.6433 283.008 53.16C279.745 49.6767 278.113 45.075 278.113 39.355ZM289.608 31.105C287.995 33.1217 287.188 35.8717 287.188 39.355C287.188 42.8383 287.995 45.6067 289.608 47.66C291.221 49.6767 293.403 50.685 296.153 50.685C298.903 50.685 301.085 49.6767 302.698 47.66C304.311 45.6067 305.118 42.8383 305.118 39.355C305.118 35.8717 304.311 33.1217 302.698 31.105C301.085 29.0517 298.903 28.025 296.153 28.025C293.403 28.025 291.221 29.0517 289.608 31.105ZM328.676 51.07H332.526C335.936 51.07 338.558 50.0067 340.391 47.88C342.261 45.7533 343.196 42.7467 343.196 38.86C343.196 35.56 342.261 32.92 340.391 30.94C338.521 28.9233 335.881 27.915 332.471 27.915H328.676V51.07ZM319.986 20.93H332.746C338.319 20.93 342.884 22.6533 346.441 26.1C349.998 29.51 351.776 33.7633 351.776 38.86C351.776 44.8 350.016 49.475 346.496 52.885C343.013 56.295 338.393 58 332.636 58H319.986V20.93Z" fill="#FFB119"/>
<ellipse cx="297" cy="40" rx="16" ry="18" fill="#FFB119"/>
<rect y="75" width="204" height="15" fill="#FFB119"/>
<rect x="204" y="75" width="150" height="15" fill="white"/>
<ellipse cx="296.5" cy="39.5" rx="6.5" ry="7.5" fill="white"/>
</svg>
